<svg width="25" height="25" viewBox="0 0 25 25" fill="none" xmlns="http://www.w3.org/2000/svg">
<path d="M14.535 9.0177C14.535 7.91313 15.4305 7.0177 16.535 7.0177V7.0177C17.6396 7.0177 18.535 7.91313 18.535 9.0177V9.0177C18.535 10.1223 17.6396 11.0177 16.535 11.0177V11.0177C15.4305 11.0177 14.535 10.1223 14.535 9.0177V9.0177Z" stroke="#252525" stroke-width="1.5"/>
<path d="M2.02145 16.642L1.12277 16.8529L2.02145 16.642ZM2.02145 9.13536L1.12277 8.92456L2.02145 9.13536ZM23.3067 9.13538L22.408 9.34617L23.3067 9.13538ZM23.3067 16.642L22.408 16.4312L23.3067 16.642ZM16.4174 23.5313L16.2066 22.6326L16.4174 23.5313ZM8.91077 23.5313L9.12156 22.6326L8.91077 23.5313ZM8.91075 2.24606L9.12156 3.14475L8.91075 2.24606ZM16.4174 2.24606L16.2066 3.14475L16.4174 2.24606ZM3.049 18.6376C2.68852 18.9981 2.68852 19.5826 3.049 19.9431C3.40948 20.3036 3.99395 20.3036 4.35443 19.9431L3.049 18.6376ZM5.84189 17.1502L5.18917 16.4974L5.84189 17.1502ZM13.0846 17.1502L12.4318 17.8029L13.0846 17.1502ZM16.0916 18.4235L16.7443 19.0761L16.0916 18.4235ZM17.7729 23.144C18.1334 23.5045 18.7179 23.5045 19.0784 23.144C19.4389 22.7835 19.4389 22.199 19.0784 21.8385L17.7729 23.144ZM21.7584 18.6806L21.0493 19.2715L21.7584 18.6806ZM21.5575 19.8813C21.8839 20.2729 22.4659 20.3259 22.8576 19.9995C23.2492 19.6732 23.3021 19.091 22.9757 18.6994L21.5575 19.8813ZM2.92014 16.4312C2.37358 14.1011 2.37358 11.6763 2.92014 9.34617L1.12277 8.92456C0.511161 11.5319 0.511161 14.2455 1.12277 16.8529L2.92014 16.4312ZM22.408 9.34617C22.9546 11.6763 22.9546 14.1011 22.408 16.4312L24.2054 16.8528C24.817 14.2455 24.817 11.5319 24.2054 8.92457L22.408 9.34617ZM16.2066 22.6326C13.8765 23.1792 11.4516 23.1792 9.12156 22.6326L8.69996 24.43C11.3073 25.0416 14.0209 25.0416 16.6281 24.43L16.2066 22.6326ZM9.12156 3.14475C11.4516 2.59818 13.8765 2.59818 16.2066 3.14475L16.6281 1.34738C14.0209 0.73577 11.3073 0.73577 8.69996 1.34738L9.12156 3.14475ZM9.12156 22.6326C6.04451 21.9109 3.64191 19.5083 2.92014 16.4312L1.12277 16.8529C2.00466 20.6125 4.94026 23.5481 8.69996 24.43L9.12156 22.6326ZM16.6281 24.43C20.3879 23.5481 23.3235 20.6125 24.2054 16.8528L22.408 16.4312C21.6862 19.5083 19.2837 21.9109 16.2066 22.6326L16.6281 24.43ZM16.2066 3.14475C19.2837 3.86652 21.6862 6.26912 22.408 9.34617L24.2054 8.92457C23.3235 5.16487 20.3879 2.22927 16.6281 1.34738L16.2066 3.14475ZM8.69996 1.34738C4.94026 2.22927 2.00466 5.16487 1.12277 8.92456L2.92014 9.34617C3.64191 6.26911 6.04451 3.86652 9.12156 3.14475L8.69996 1.34738ZM4.35443 19.9431L6.4946 17.8029L5.18917 16.4974L3.049 18.6376L4.35443 19.9431ZM12.4318 17.8029L14.572 19.9431L15.8775 18.6376L13.7373 16.4974L12.4318 17.8029ZM15.8775 19.9431L16.7443 19.0761L15.439 17.7708L14.572 18.6376L15.8775 19.9431ZM14.572 19.9431L17.7729 23.144L19.0784 21.8385L15.8775 18.6376L14.572 19.9431ZM21.0493 19.2715L21.5575 19.8813L22.9757 18.6994L22.4675 18.0896L21.0493 19.2715ZM16.7443 19.0761C17.9576 17.863 19.9509 17.9533 21.0493 19.2715L22.4675 18.0896C20.6741 15.9374 17.4199 15.7899 15.439 17.7708L16.7443 19.0761ZM6.4946 17.8029C8.13414 16.1634 10.7923 16.1634 12.4318 17.8029L13.7373 16.4974C11.3768 14.1369 7.54967 14.1369 5.18917 16.4974L6.4946 17.8029Z" fill="#252525"/>
</svg>
