<svg width="25" height="25" viewBox="0 0 25 25" fill="none" xmlns="http://www.w3.org/2000/svg">
<path d="M1.45091 8.49201C2.28337 4.94308 5.05441 2.17204 8.60334 1.33958C11.1664 0.73837 13.8336 0.73837 16.3967 1.33958C19.9456 2.17204 22.7166 4.94308 23.5491 8.49202C24.1503 11.0551 24.1503 13.7223 23.5491 16.2854C22.7166 19.8343 19.9456 22.6053 16.3967 23.4378C13.8336 24.039 11.1664 24.039 8.60335 23.4378C5.05441 22.6053 2.28337 19.8343 1.45091 16.2854C0.849698 13.7223 0.849698 11.0551 1.45091 8.49201Z" stroke="#252525" stroke-width="1.5"/>
<path d="M8.50003 12.3887C8.50003 10.1795 10.2909 8.38867 12.5 8.38867V8.38867C14.7092 8.38867 16.5 10.1795 16.5 12.3887V12.3887C16.5 14.5978 14.7092 16.3887 12.5 16.3887V16.3887C10.2909 16.3887 8.50003 14.5978 8.50003 12.3887V12.3887Z" stroke="#252525" stroke-width="1.5"/>
<circle cx="17.5058" cy="6.07184" r="1.25" fill="#252525"/>
</svg>
