<svg width="25" height="35" viewBox="0 0 25 35" fill="none" xmlns="http://www.w3.org/2000/svg">
<path d="M4.74206 23.1124C4.74206 23.1124 2.66198 30.3677 3.31897 32.1191C3.97546 33.8706 9.12072 31.5718 11.6385 31.0243C14.1564 30.4771 18.6449 33.6515 19.192 33.4327C19.7396 33.2139 22.5856 32.0096 22.4764 31.0243C22.3671 30.0392 19.7396 21.3909 19.7396 21.3909C19.7396 21.3909 20.8343 22.8636 16.5651 23.1124C12.2955 23.3613 7.47888 23.252 5.83679 22.1572C4.19446 21.0624 4.74206 23.1124 4.74206 23.1124Z" fill="#858D94"/>
<path d="M5.36939 22.0736C0.815434 21.0774 0.10352 6.41909 5.36939 3.43057C10.6353 0.44204 18.7466 1.2958 20.4543 4.14211C23.1411 7.21926 27.5703 16.0963 21.4509 20.3659C15.3313 24.6353 9.92334 23.0698 5.36939 22.0736Z" fill="url(#paint0_linear_1_1114)"/>
<path d="M16.4294 23.3291C17.7187 23.0362 18.9055 22.496 19.9346 21.7622L21.968 29.7526C22.5786 32.1518 20.0122 34.1455 17.7265 33.0479L14.2997 31.402C13.1811 30.865 11.8677 30.865 10.7491 31.402L7.32227 33.0479C5.0366 34.1455 2.47022 32.1518 3.08075 29.7526L5.11413 21.762C6.14315 22.496 7.33008 23.0362 8.61946 23.3291M16.4294 23.3291C13.8609 23.9126 11.1879 23.9126 8.61946 23.3291M16.4294 23.3291C19.9858 22.5212 22.7626 19.8316 23.5968 16.3872C24.1995 13.8995 24.1995 11.3107 23.5968 8.82317C22.7626 5.37869 19.9858 2.6892 16.4294 1.88123C13.8609 1.29773 11.1879 1.29773 8.61944 1.88123C5.063 2.6892 2.28608 5.37869 1.45186 8.82317C0.849381 11.3107 0.849381 13.8995 1.45186 16.3872C2.28608 19.8316 5.063 22.5212 8.61946 23.3291" stroke="#252525" stroke-width="1.5"/>
<defs>
<linearGradient id="paint0_linear_1_1114" x1="19.0271" y1="21.5762" x2="13.1079" y2="21.5762" gradientUnits="userSpaceOnUse">
<stop stop-color="#626264"/>
<stop offset="0.481163" stop-color="#2E2B2C"/>
<stop offset="1" stop-color="#8C959D"/>
</linearGradient>
</defs>
</svg>
