<svg width="20" height="26" viewBox="0 0 20 26" fill="none" xmlns="http://www.w3.org/2000/svg">
<path d="M15.2009 0.212524H4.81699C2.17646 0.212524 0.0358881 2.3531 0.0358887 4.99363V16.9464C0.0358887 19.5869 2.17646 21.7275 4.81699 21.7275H15.2159C17.8435 21.7094 19.9642 19.5741 19.9641 16.9464V4.99363C19.9641 2.36005 17.8344 0.222381 15.2009 0.212524H15.2009ZM3.92053 18.2672C3.15313 18.2672 2.53102 17.6451 2.53102 16.8776C2.53102 16.1102 3.15313 15.4881 3.92053 15.4881C4.68793 15.4881 5.31004 16.1102 5.31004 16.8776C5.31004 17.6451 4.68793 18.2672 3.92053 18.2672ZM9.11997 9.84047C9.11997 10.5006 8.58483 11.0357 7.9247 11.0357H3.296C2.98048 11.0357 2.67828 10.9092 2.45699 10.6845C2.23577 10.4599 2.11385 10.1558 2.11865 9.84047V6.88515C2.11865 6.24433 2.63726 5.72439 3.27807 5.72274H7.96952C8.6115 5.72274 9.13192 6.24317 9.13192 6.88515L9.11997 9.84047ZM8.61198 2.62698C8.61198 1.85958 9.23408 1.23747 10.0015 1.23747C10.7689 1.23747 11.391 1.85958 11.391 2.62698C11.391 3.39438 10.7689 4.01649 10.0015 4.01649C9.23408 4.01649 8.61198 3.39438 8.61198 2.62698L8.61198 2.62698ZM16.0824 18.2672C15.315 18.2672 14.6929 17.6451 14.6929 16.8776C14.6929 16.1102 15.315 15.4881 16.0824 15.4881C16.8498 15.4881 17.4719 16.1102 17.4719 16.8776C17.472 17.2489 17.3235 17.6046 17.0596 17.8656C16.7959 18.1265 16.4386 18.2711 16.0675 18.2672H16.0824ZM17.8903 9.84047C17.8903 10.5006 17.3552 11.0357 16.695 11.0357H12.0394C11.3793 11.0357 10.8442 10.5006 10.8442 9.84047V6.88515C10.8442 6.24317 11.3646 5.72274 12.0066 5.72274H16.698C17.34 5.72274 17.8604 6.24317 17.8604 6.88515L17.8903 9.84047Z" fill="#828282"/>
<path d="M3.48547 23.9304C3.48547 23.1799 4.09391 22.5714 4.84446 22.5714H15.5589C16.3095 22.5714 16.9179 23.1799 16.9179 23.9304C16.9179 24.6809 16.3095 25.2894 15.5589 25.2894H4.84446C4.09391 25.2894 3.48547 24.6809 3.48547 23.9304Z" fill="#828282"/>
</svg>
