<svg width="24" height="24" viewBox="0 0 24 24" fill="none" xmlns="http://www.w3.org/2000/svg">
<path d="M13.375 0H9.75598C8.99382 0 8.37598 0.617847 8.37598 1.38V1.381C8.37598 2.14315 8.99382 2.761 9.75598 2.761H13.375C14.1371 2.761 14.755 2.14315 14.755 1.381V1.38C14.755 0.617847 14.1371 0 13.375 0Z" fill="#252525"/>
<path d="M1.61501 22.086C1.61461 22.2512 1.64686 22.4148 1.70989 22.5675C1.77292 22.7202 1.86549 22.8589 1.98229 22.9757C2.0991 23.0925 2.23782 23.1851 2.39051 23.2481C2.54319 23.3112 2.70683 23.3434 2.87201 23.343H3.23801C3.40294 23.343 3.56625 23.3105 3.71859 23.2473C3.87093 23.1841 4.0093 23.0914 4.12578 22.9747C4.24227 22.8579 4.33457 22.7193 4.39742 22.5668C4.46026 22.4143 4.4924 22.2509 4.49201 22.086V21.067C4.49201 20.9052 4.42774 20.7501 4.31334 20.6357C4.19895 20.5213 4.04379 20.457 3.88201 20.457H2.21901C2.05723 20.457 1.90207 20.5213 1.78767 20.6357C1.67328 20.7501 1.60901 20.9052 1.60901 21.067L1.61501 22.086Z" fill="#252525"/>
<path d="M18.641 22.086C18.6406 22.2509 18.6728 22.4143 18.7356 22.5668C18.7984 22.7193 18.8907 22.8579 19.0072 22.9747C19.1237 23.0914 19.2621 23.1841 19.4144 23.2473C19.5668 23.3105 19.7301 23.343 19.895 23.343H20.264C20.5974 23.343 20.9171 23.2106 21.1528 22.9748C21.3886 22.7391 21.521 22.4194 21.521 22.086V21.067C21.521 20.9052 21.4567 20.7501 21.3423 20.6357C21.2279 20.5213 21.0728 20.457 20.911 20.457H19.245C19.0832 20.457 18.9281 20.5213 18.8137 20.6357C18.6993 20.7501 18.635 20.9052 18.635 21.067L18.641 22.086Z" fill="#252525"/>
<path d="M21.966 19.584L1.13701 19.566C0.984358 19.564 0.833921 19.5292 0.695892 19.464C0.557864 19.3988 0.43547 19.3047 0.337006 19.188C0.118655 18.9332 -0.000937114 18.6085 5.53028e-06 18.273L0.0270055 13.611C0.0230556 13.2746 0.141791 12.9482 0.361006 12.693C0.45947 12.5763 0.581864 12.4822 0.719892 12.417C0.857921 12.3518 1.00836 12.317 1.16101 12.315C1.39439 12.3066 1.61961 12.227 1.80642 12.0868C1.99323 11.9467 2.13267 11.7527 2.20601 11.531L4.08201 6.851C4.08906 6.82998 4.09507 6.80862 4.10001 6.787C4.32698 5.91392 4.82858 5.13692 5.5308 4.57064C6.23301 4.00437 7.09866 3.67881 8.00001 3.642H15.282C16.2094 3.68016 17.0982 4.02404 17.8097 4.62003C18.5213 5.21602 19.0157 6.03066 19.216 6.937L20.864 11.512C20.9315 11.7426 21.07 11.946 21.2598 12.0934C21.4495 12.2408 21.6809 12.3246 21.921 12.333H21.992C22.1466 12.3354 22.2988 12.371 22.4384 12.4375C22.578 12.5039 22.7016 12.5996 22.801 12.718C23.0185 12.9762 23.1353 13.3044 23.13 13.642L23.1 18.303C23.1157 18.6223 23.0059 18.9351 22.794 19.1745C22.5821 19.4139 22.2849 19.5609 21.966 19.584ZM18.884 12.484C18.563 12.484 18.2493 12.5792 17.9824 12.7575C17.7155 12.9357 17.5075 13.1892 17.3846 13.4857C17.2618 13.7822 17.2296 14.1085 17.2921 14.4233C17.3547 14.7381 17.5091 15.0273 17.736 15.2543C17.9629 15.4813 18.252 15.636 18.5668 15.6987C18.8815 15.7614 19.2078 15.7294 19.5044 15.6067C19.801 15.4841 20.0545 15.2762 20.233 15.0094C20.4115 14.7426 20.5068 14.429 20.507 14.108C20.5073 13.6772 20.3365 13.2639 20.0321 12.959C19.7278 12.6541 19.3148 12.4825 18.884 12.482V12.484ZM4.27701 12.484C3.95596 12.484 3.64213 12.5792 3.37521 12.7576C3.10829 12.936 2.90027 13.1895 2.77745 13.4861C2.65464 13.7828 2.62256 14.1091 2.68526 14.424C2.74797 14.7389 2.90264 15.028 3.12973 15.255C3.35681 15.4819 3.64609 15.6364 3.96099 15.6989C4.27588 15.7614 4.60225 15.7292 4.89879 15.6062C5.19534 15.4832 5.44875 15.275 5.62697 15.008C5.80518 14.7409 5.9002 14.427 5.90001 14.106C5.89974 13.6755 5.72869 13.2628 5.42441 12.9583C5.12012 12.6538 4.70746 12.4825 4.27701 12.482V12.484ZM7.43901 6.26C7.12253 6.27157 6.8171 6.37932 6.56341 6.56887C6.30972 6.75842 6.11982 7.02079 6.01901 7.321L5.46801 8.731C5.38967 8.93074 5.35658 9.14536 5.3711 9.35942C5.38562 9.57348 5.44741 9.78167 5.55201 9.969C5.6442 10.1441 5.78156 10.2913 5.94984 10.3954C6.11812 10.4995 6.31118 10.5567 6.50901 10.561L16.673 10.579H16.679C16.8705 10.5746 17.0577 10.5207 17.2221 10.4223C17.3865 10.324 17.5226 10.1847 17.617 10.018C17.7235 9.83806 17.7899 9.63724 17.8117 9.42927C17.8334 9.2213 17.81 9.01108 17.743 8.813L17.262 7.391C17.1687 7.07521 16.9791 6.79644 16.7197 6.59366C16.4603 6.39089 16.144 6.27423 15.815 6.26H7.43901Z" fill="#252525"/>
</svg>
