<svg width="22" height="26" viewBox="0 0 22 26" fill="none" xmlns="http://www.w3.org/2000/svg">
<path d="M21.6919 10.9361L21.1454 5.0158C20.8929 2.29467 18.61 0.213302 15.8772 0.212525L6.23443 0.212525C3.43776 0.211713 1.10141 2.34256 0.845465 5.1275L0.292982 10.9361C0.292982 11.0327 0.292982 11.1263 0.292982 11.2229V18.5501C0.290576 19.3708 0.614904 20.1587 1.19437 20.7398C1.77383 21.321 2.56077 21.6476 3.38145 21.6476H18.6155C19.4367 21.6484 20.2244 21.3221 20.8045 20.7409C21.3846 20.1596 21.7094 19.3713 21.707 18.5501V11.2229C21.707 11.1263 21.7009 11.0327 21.6919 10.9361ZM3.81015 6.33813C3.93691 4.88833 5.15044 3.7757 6.60577 3.77498H15.3881C16.8435 3.7757 18.057 4.88833 18.1838 6.33813L18.3649 8.45145C18.3962 8.8096 18.2758 9.16445 18.033 9.42961C17.7902 9.69477 17.4474 9.84591 17.0878 9.84624H4.90606C4.54192 9.84956 4.19345 9.69835 3.94712 9.43016C3.70079 9.16196 3.57971 8.80191 3.61391 8.43937L3.81015 6.33813ZM4.32641 17.9372C3.72552 18.0344 3.13048 17.7333 2.85292 17.1915C2.57535 16.6498 2.6785 15.991 3.10835 15.56C3.5382 15.129 4.1968 15.0242 4.73923 15.3003C5.28166 15.5765 5.58434 16.1707 5.48873 16.7719C5.39264 17.3701 4.92436 17.8396 4.3264 17.9372H4.32641ZM18.4615 18.1546C17.8606 18.2559 17.2629 17.958 16.9821 17.4171C16.7014 16.8762 16.8016 16.216 17.2303 15.7828C17.6589 15.3496 18.3181 15.2425 18.8619 15.5176C19.4057 15.7928 19.7098 16.3873 19.6148 16.9893C19.5198 17.5847 19.0559 18.0534 18.4615 18.1546Z" fill="#828282"/>
<path d="M2.70813 23.8062C2.70813 24.1374 2.83991 24.455 3.0744 24.6889C3.30888 24.9229 3.6268 25.0539 3.95801 25.0531L4.30822 25.0531C4.63943 25.0539 4.95735 24.9229 5.19183 24.6889C5.42632 24.455 5.55809 24.1374 5.55809 23.8062L5.55809 22.8099C5.55809 22.4764 5.28776 22.2061 4.95429 22.2061H3.31194C2.97846 22.2061 2.70813 22.4764 2.70813 22.8099V23.8062Z" fill="#828282"/>
<path d="M16.8162 23.8062C16.8162 24.4948 17.3744 25.0531 18.063 25.0531H18.4072C19.0958 25.0531 19.6541 24.4948 19.6541 23.8062V22.8099C19.6541 22.4764 19.3837 22.2061 19.0502 22.2061H17.42C17.0865 22.2061 16.8162 22.4764 16.8162 22.8099V23.8062Z" fill="#828282"/>
</svg>
