<svg width="25" height="25" viewBox="0 0 25 25" fill="none" xmlns="http://www.w3.org/2000/svg">
<path d="M15.9475 1.14107C18.1102 0.524865 20.4903 1.0353 22.1456 2.69059C23.8009 4.34591 24.3113 6.72598 23.6951 8.88867M17.8844 3.85274C18.6568 3.69889 19.5466 3.96538 20.2087 4.62751C20.8708 5.28962 21.1373 6.17933 20.9834 6.95178" stroke="#252525" stroke-width="1.5" stroke-linecap="round" stroke-linejoin="round"/>
<path d="M16.4921 23.7398C17.6185 23.9382 18.7765 23.9382 19.903 23.7398C21.7134 23.4207 23.1718 22.2053 23.6741 20.5966L23.7806 20.2553C23.8913 19.9007 23.9475 19.5339 23.9475 19.1652C23.9475 17.5398 22.4938 16.222 20.7005 16.222H15.6945C13.9012 16.222 12.4475 17.5398 12.4475 19.1652C12.4475 19.5339 12.5037 19.9007 12.6144 20.2553L12.721 20.5966C13.2232 22.2053 14.6816 23.4207 16.4921 23.7398ZM16.4921 23.7398C8.66778 22.29 2.54611 16.1683 1.09637 8.3441M1.09637 8.3441C0.89789 7.2177 0.89789 6.05966 1.09637 4.93325C1.4154 3.12276 2.6309 1.66445 4.23959 1.16214L4.5808 1.05559C4.93549 0.944843 5.30234 0.888672 5.67095 0.888672C7.29645 0.888672 8.61419 2.34237 8.61417 4.13558V9.14176C8.61419 10.9349 7.29645 12.3887 5.67095 12.3887C5.30234 12.3887 4.93549 12.3324 4.5808 12.2218L4.23959 12.1152C2.6309 11.6129 1.4154 10.1546 1.09637 8.3441Z" stroke="#252525" stroke-width="1.5"/>
</svg>
