<svg width="25" height="25" viewBox="0 0 25 25" fill="none" xmlns="http://www.w3.org/2000/svg">
<path d="M1.2581 8.43132C2.08391 4.91072 4.83284 2.16179 8.35344 1.33598C10.896 0.73957 13.542 0.73957 16.0846 1.33598C19.6052 2.16179 22.3541 4.91072 23.1799 8.43133C23.7763 10.9739 23.7763 13.6199 23.1799 16.1625C22.3541 19.6831 19.6052 22.432 16.0846 23.2578C13.542 23.8542 10.896 23.8542 8.35345 23.2578C4.83284 22.432 2.08391 19.6831 1.2581 16.1625C0.661689 13.6199 0.661689 10.9739 1.2581 8.43132Z" stroke="#252525" stroke-width="1.5"/>
<path d="M12.219 0.888672V23.8887" stroke="#252525"/>
<path d="M8.50433 0.888672C8.50433 0.888672 6.03485 6.65818 6.03485 12.4082C6.03485 18.1582 8.50433 23.8887 8.50433 23.8887" stroke="#252525" stroke-width="0.5"/>
<path d="M15.9337 0.888672C15.9337 0.888672 18.4031 6.65818 18.4031 12.4082C18.4031 18.1582 15.9337 23.8887 15.9337 23.8887" stroke="#252525" stroke-width="0.5"/>
</svg>
