<svg width="23" height="23" viewBox="0 0 23 23" fill="none" xmlns="http://www.w3.org/2000/svg">
<path d="M15.1929 21.8641C16.2214 22.0453 17.2786 22.0453 18.3071 21.8641C19.9602 21.5728 21.2917 20.4631 21.7503 18.9942L21.8476 18.6826C21.9487 18.3589 22 18.0239 22 17.6873C22 16.2032 20.6727 15 19.0354 15H14.4646C12.8273 15 11.5 16.2032 11.5 17.6873C11.5 18.0239 11.5513 18.3589 11.6524 18.6826L11.7497 18.9942C12.2083 20.4631 13.5398 21.5728 15.1929 21.8641ZM15.1929 21.8641C8.04894 20.5404 2.45959 14.951 1.13591 7.80714M1.13591 7.80714C0.954695 6.77868 0.954695 5.72134 1.13591 4.69288C1.42721 3.03983 2.53701 1.70832 4.00581 1.24969L4.31736 1.1524C4.6412 1.05129 4.97615 1 5.31271 1C6.79686 1 8.00001 2.3273 8 3.96457V8.53544C8.00001 10.1727 6.79686 11.5 5.31271 11.5C4.97615 11.5 4.6412 11.4487 4.31736 11.3476L4.00581 11.2503C2.53701 10.7917 1.42721 9.46021 1.13591 7.80714Z" stroke="#252525" stroke-width="2"/>
</svg>
